<svg width="193" height="40" viewBox="0 0 193 40" fill="none" xmlns="http://www.w3.org/2000/svg">
<path d="M174.514 32.2309V7H179.762V16.4862H179.922C180.152 15.977 180.485 15.4596 180.92 14.9339C181.363 14.4001 181.938 13.9566 182.645 13.6034C183.359 13.242 184.246 13.0613 185.306 13.0613C186.686 13.0613 187.959 13.4227 189.125 14.1455C190.291 14.86 191.223 15.9401 191.922 17.3856C192.62 18.8229 192.969 20.6257 192.969 22.794C192.969 24.9047 192.628 26.687 191.946 28.1407C191.273 29.5863 190.353 30.6827 189.187 31.4301C188.028 32.1693 186.731 32.5389 185.293 32.5389C184.275 32.5389 183.409 32.3705 182.694 32.0338C181.988 31.697 181.409 31.2741 180.957 30.7648C180.505 30.2474 180.16 29.7259 179.922 29.2002H179.688V32.2309H174.514ZM179.651 22.7693C179.651 23.8945 179.807 24.876 180.119 25.7137C180.431 26.5515 180.883 27.2044 181.474 27.6726C182.066 28.1325 182.784 28.3625 183.63 28.3625C184.484 28.3625 185.207 28.1284 185.799 27.6603C186.39 27.1839 186.838 26.5268 187.141 25.6891C187.454 24.8431 187.61 23.8699 187.61 22.7693C187.61 21.677 187.458 20.716 187.154 19.8865C186.85 19.057 186.402 18.4081 185.811 17.94C185.22 17.4718 184.493 17.2377 183.63 17.2377C182.776 17.2377 182.053 17.4636 181.462 17.9153C180.879 18.367 180.431 19.0077 180.119 19.8372C179.807 20.6667 179.651 21.6441 179.651 22.7693Z" fill="#3056D3"/>
<path d="M161.261 32.5997C159.314 32.5997 157.639 32.2055 156.234 31.417C154.838 30.6203 153.762 29.4951 153.006 28.0414C152.251 26.5794 151.873 24.8506 151.873 22.8548C151.873 20.9082 152.251 19.1999 153.006 17.7297C153.762 16.2596 154.826 15.1138 156.197 14.2925C157.577 13.4712 159.195 13.0605 161.051 13.0605C162.3 13.0605 163.462 13.2618 164.538 13.6642C165.622 14.0584 166.566 14.6539 167.371 15.4506C168.184 16.2473 168.817 17.2493 169.269 18.4566C169.72 19.6557 169.946 21.0602 169.946 22.67V24.1114H153.967V20.859H165.006C165.006 20.1034 164.842 19.434 164.513 18.8508C164.185 18.2677 163.729 17.8119 163.146 17.4833C162.571 17.1466 161.901 16.9782 161.138 16.9782C160.341 16.9782 159.635 17.163 159.019 17.5326C158.411 17.894 157.934 18.3827 157.589 18.9987C157.244 19.6065 157.068 20.284 157.06 21.0314V24.1237C157.06 25.06 157.232 25.869 157.577 26.5507C157.93 27.2324 158.427 27.758 159.068 28.1276C159.708 28.4972 160.468 28.682 161.347 28.682C161.93 28.682 162.464 28.5999 162.949 28.4356C163.433 28.2714 163.848 28.025 164.193 27.6964C164.538 27.3679 164.801 26.9655 164.981 26.4891L169.835 26.8094C169.589 27.9757 169.084 28.9941 168.32 29.8647C167.564 30.7271 166.587 31.4006 165.388 31.8852C164.197 32.3615 162.821 32.5997 161.261 32.5997Z" fill="#3056D3"/>
<path d="M123.463 32.2309L116.243 7H122.07L126.247 24.531H126.456L131.064 7H136.053L140.649 24.568H140.87L145.047 7H150.874L143.655 32.2309H138.456L133.651 15.7347H133.454L128.661 32.2309H123.463Z" fill="#3056D3"/>
<path d="M103.679 32.5874C102.471 32.5874 101.395 32.378 100.451 31.9591C99.5063 31.532 98.7589 30.9037 98.2086 30.0742C97.6665 29.2364 97.3955 28.1933 97.3955 26.9449C97.3955 25.8936 97.5885 25.0107 97.9745 24.2962C98.3606 23.5816 98.8862 23.0067 99.5515 22.5714C100.217 22.1361 100.972 21.8076 101.818 21.5858C102.672 21.3641 103.568 21.208 104.504 21.1177C105.605 21.0027 106.492 20.8959 107.165 20.7974C107.839 20.6906 108.327 20.5345 108.631 20.3292C108.935 20.1239 109.087 19.82 109.087 19.4176V19.3436C109.087 18.5634 108.841 17.9597 108.348 17.5326C107.863 17.1055 107.173 16.892 106.278 16.892C105.334 16.892 104.582 17.1014 104.024 17.5203C103.465 17.931 103.095 18.4484 102.915 19.0726L98.0608 18.6784C98.3072 17.5285 98.7917 16.5347 99.5145 15.697C100.237 14.851 101.169 14.2022 102.311 13.7505C103.461 13.2905 104.791 13.0605 106.303 13.0605C107.354 13.0605 108.36 13.1837 109.321 13.4301C110.29 13.6765 111.148 14.0584 111.896 14.5759C112.651 15.0933 113.247 15.7586 113.682 16.5717C114.118 17.3766 114.335 18.3416 114.335 19.4668V32.2301H109.358V29.606H109.21C108.906 30.1974 108.5 30.7189 107.991 31.1706C107.481 31.6141 106.869 31.9632 106.155 32.2178C105.44 32.4642 104.615 32.5874 103.679 32.5874ZM105.182 28.9654C105.954 28.9654 106.635 28.8134 107.227 28.5095C107.818 28.1974 108.282 27.7786 108.619 27.2529C108.956 26.7273 109.124 26.1318 109.124 25.4666V23.4584C108.96 23.5652 108.734 23.6638 108.446 23.7541C108.167 23.8362 107.851 23.9143 107.498 23.9882C107.145 24.0539 106.791 24.1155 106.438 24.173C106.085 24.2223 105.765 24.2674 105.477 24.3085C104.861 24.3988 104.323 24.5426 103.863 24.7397C103.403 24.9368 103.046 25.2037 102.792 25.5405C102.537 25.869 102.41 26.2797 102.41 26.7725C102.41 27.487 102.668 28.0332 103.186 28.411C103.711 28.7806 104.377 28.9654 105.182 28.9654Z" fill="#3056D3"/>
<path d="M93.8206 13.3071V17.2494H82.4248V13.3071H93.8206ZM85.012 8.77344H90.2602V26.4154C90.2602 26.8999 90.3341 27.2777 90.4819 27.5488C90.6298 27.8116 90.8351 27.9964 91.0979 28.1032C91.369 28.2099 91.6811 28.2633 92.0342 28.2633C92.2806 28.2633 92.527 28.2428 92.7734 28.2017C93.0198 28.1524 93.2087 28.1155 93.3401 28.0908L94.1655 31.9962C93.9027 32.0783 93.5331 32.1728 93.0568 32.2796C92.5804 32.3946 92.0014 32.4644 91.3197 32.489C90.0549 32.5383 88.9461 32.3699 87.9933 31.9839C87.0488 31.5979 86.3137 30.9983 85.7881 30.1852C85.2625 29.3721 85.0037 28.3455 85.012 27.1053V8.77344Z" fill="#3056D3"/>
<path d="M78.509 7V32.2309H73.2607V7H78.509Z" fill="#3056D3"/>
<path d="M50.7164 32.2309H45L53.7101 7H60.5845L69.2823 32.2309H63.5659L57.2459 12.7657H57.0487L50.7164 32.2309ZM50.3591 22.3135H63.8616V26.4776H50.3591V22.3135Z" fill="#3056D3"/>
<path d="M20 40C31.0457 40 40 31.0457 40 20C40 8.9543 31.0457 0 20 0C8.9543 0 0 8.9543 0 20C0 31.0457 8.9543 40 20 40Z" fill="white"/>
<path fill-rule="evenodd" clip-rule="evenodd" d="M11.2311 8C9.51935 8 8.25272 9.4983 8.30942 11.1231C8.36387 12.684 8.29313 14.7058 7.7842 16.3545C7.27344 18.0078 6.41023 19.0555 5 19.19V20.7083C6.41023 20.8431 7.27344 21.8902 7.78414 23.5438C8.29313 25.1925 8.36381 27.2142 8.30936 28.7752C8.25266 30.3998 9.51929 31.8983 11.2313 31.8983H28.7712C30.483 31.8983 31.7494 30.4 31.6926 28.7752C31.6382 27.2142 31.7089 25.1925 32.2179 23.5438C32.7286 21.8902 33.5897 20.8426 35 20.7083V19.19C33.5898 19.0552 32.7287 18.0081 32.2179 16.3545C31.7088 14.706 31.6382 12.684 31.6926 11.1231C31.7494 9.4985 30.483 8 28.7712 8H11.2311ZM25.339 22.7109C25.339 24.9483 23.6702 26.3051 20.9008 26.3051H16.1864C16.0516 26.3051 15.9223 26.2515 15.8269 26.1562C15.7315 26.0608 15.678 25.9315 15.678 25.7966V14.1017C15.678 13.9669 15.7315 13.8375 15.8269 13.7422C15.9223 13.6468 16.0516 13.5933 16.1864 13.5933H20.8739C23.1832 13.5933 24.6987 14.8441 24.6987 16.7646C24.6987 18.1125 23.6792 19.3193 22.3803 19.5307V19.601C24.1484 19.7949 25.339 21.0195 25.339 22.7109ZM20.3867 15.2051H17.6987V19.002H19.9627C21.7129 19.002 22.6779 18.2972 22.6779 17.0375C22.6777 15.857 21.8481 15.2051 20.3867 15.2051ZM17.6987 20.5085V24.6927H20.4856C22.3079 24.6927 23.2731 23.9615 23.2731 22.5874C23.2731 21.2133 22.2808 20.5083 20.3684 20.5083L17.6987 20.5085Z" fill="#3056D3"/>
<rect x="12" y="11" width="15" height="18" fill="#3056D3"/>
<path d="M29.9996 21.0876L23.9795 23.7385V22.0069L28.1012 20.3522L28.0457 20.442V20.2282L28.1012 20.318L23.9795 18.6633V16.9316L29.9996 19.5826V21.0876Z" fill="white"/>
<path d="M22.3853 14.6699L19.5633 25.1539H17.9941L20.8161 14.6699H22.3853Z" fill="white"/>
<path d="M10.3818 21.0876V19.5826L16.402 16.9316V18.6633L12.2802 20.318L12.3358 20.2282V20.442L12.2802 20.3522L16.402 22.0069V23.7385L10.3818 21.0876Z" fill="white"/>
</svg>
